<mxfile host="65bd71144e">
    <diagram id="RUnALaOWQKubOSITwQ8K" name="Page-1">
        <mxGraphModel dx="2275" dy="2316" grid="1" gridSize="10" guides="1" tooltips="1" connect="1" arrows="1" fold="1" page="1" pageScale="1" pageWidth="827" pageHeight="1169" math="0" shadow="0">
            <root>
                <mxCell id="0"/>
                <mxCell id="1" parent="0"/>
                <mxCell id="l1DRGvKWDy4JXCWzNHa7-1" value="&lt;h1&gt;Architecture Diagram - SSW.Website&lt;/h1&gt;&lt;div&gt;&lt;br&gt;&lt;/div&gt;" style="text;html=1;align=center;verticalAlign=middle;resizable=0;points=[];autosize=1;strokeColor=none;fillColor=none;" parent="1" vertex="1">
                    <mxGeometry x="198.13" y="-1150" width="430" height="70" as="geometry"/>
                </mxCell>
                <mxCell id="oge7Bh9W16Lu8XVp-vkS-3" value="" style="group" parent="1" vertex="1" connectable="0">
                    <mxGeometry x="-210" y="-1090" width="1326.25" height="1230" as="geometry"/>
                </mxCell>
                <mxCell id="WIdfKLKi0uitsYpSGiFz-20" value="" style="rounded=1;whiteSpace=wrap;html=1;dashed=1;fontSize=14;verticalAlign=bottom;" parent="oge7Bh9W16Lu8XVp-vkS-3" vertex="1">
                    <mxGeometry x="419" y="600" width="671" height="630" as="geometry"/>
                </mxCell>
                <mxCell id="l1DRGvKWDy4JXCWzNHa7-88" value="" style="endArrow=classic;html=1;rounded=0;fontSize=14;entryX=0.5;entryY=0;entryDx=0;entryDy=0;exitX=0.5;exitY=1;exitDx=0;exitDy=0;" parent="oge7Bh9W16Lu8XVp-vkS-3" source="l1DRGvKWDy4JXCWzNHa7-45" edge="1">
                    <mxGeometry width="50" height="50" relative="1" as="geometry">
                        <mxPoint x="579" y="460" as="sourcePoint"/>
                        <mxPoint x="704.0050000000006" y="595.2300000000002" as="targetPoint"/>
                        <Array as="points"/>
                    </mxGeometry>
                </mxCell>
                <mxCell id="l1DRGvKWDy4JXCWzNHa7-45" value="" style="rounded=1;whiteSpace=wrap;html=1;dashed=1;fontSize=14;verticalAlign=bottom;" parent="oge7Bh9W16Lu8XVp-vkS-3" vertex="1">
                    <mxGeometry x="459" width="490" height="510" as="geometry"/>
                </mxCell>
                <mxCell id="KMOnb_bAFBB5x_InmHM_-2" value="SSW.Website.Content&amp;nbsp;" style="dashed=0;outlineConnect=0;html=1;align=center;labelPosition=center;verticalLabelPosition=bottom;verticalAlign=top;shape=mxgraph.weblogos.github;fontSize=14;" parent="oge7Bh9W16Lu8XVp-vkS-3" vertex="1">
                    <mxGeometry x="654" y="10" width="100" height="100" as="geometry"/>
                </mxCell>
                <mxCell id="KMOnb_bAFBB5x_InmHM_-16" value="" style="group" parent="oge7Bh9W16Lu8XVp-vkS-3" vertex="1" connectable="0">
                    <mxGeometry x="469" y="165" width="470" height="150" as="geometry"/>
                </mxCell>
                <mxCell id="KMOnb_bAFBB5x_InmHM_-12" value="&lt;p&gt;&lt;font style=&quot;font-size: 14px&quot;&gt;Content module folders&lt;/font&gt;&lt;/p&gt;" style="rounded=1;whiteSpace=wrap;html=1;dashed=1;verticalAlign=bottom;" parent="KMOnb_bAFBB5x_InmHM_-16" vertex="1">
                    <mxGeometry width="470" height="150" as="geometry"/>
                </mxCell>
                <mxCell id="KMOnb_bAFBB5x_InmHM_-13" value="" style="group" parent="KMOnb_bAFBB5x_InmHM_-16" vertex="1" connectable="0">
                    <mxGeometry x="19.99999999999997" y="20" width="426.6700000000001" height="60" as="geometry"/>
                </mxCell>
                <mxCell id="KMOnb_bAFBB5x_InmHM_-4" value="/Consulting" style="sketch=0;pointerEvents=1;shadow=0;dashed=0;html=1;strokeColor=none;fillColor=#505050;labelPosition=center;verticalLabelPosition=bottom;verticalAlign=top;outlineConnect=0;align=center;shape=mxgraph.office.concepts.folder;fontSize=14;" parent="KMOnb_bAFBB5x_InmHM_-13" vertex="1">
                    <mxGeometry width="66.67" height="60" as="geometry"/>
                </mxCell>
                <mxCell id="KMOnb_bAFBB5x_InmHM_-5" value="/Products" style="sketch=0;pointerEvents=1;shadow=0;dashed=0;html=1;strokeColor=none;fillColor=#505050;labelPosition=center;verticalLabelPosition=bottom;verticalAlign=top;outlineConnect=0;align=center;shape=mxgraph.office.concepts.folder;fontSize=14;" parent="KMOnb_bAFBB5x_InmHM_-13" vertex="1">
                    <mxGeometry x="90.00000000000003" width="66.67" height="60" as="geometry"/>
                </mxCell>
                <mxCell id="KMOnb_bAFBB5x_InmHM_-6" value="/Training" style="sketch=0;pointerEvents=1;shadow=0;dashed=0;html=1;strokeColor=none;fillColor=#505050;labelPosition=center;verticalLabelPosition=bottom;verticalAlign=top;outlineConnect=0;align=center;shape=mxgraph.office.concepts.folder;fontSize=14;" parent="KMOnb_bAFBB5x_InmHM_-13" vertex="1">
                    <mxGeometry x="180.00000000000003" width="66.67" height="60" as="geometry"/>
                </mxCell>
                <mxCell id="KMOnb_bAFBB5x_InmHM_-9" value="/AboutUs" style="sketch=0;pointerEvents=1;shadow=0;dashed=0;html=1;strokeColor=none;fillColor=#505050;labelPosition=center;verticalLabelPosition=bottom;verticalAlign=top;outlineConnect=0;align=center;shape=mxgraph.office.concepts.folder;fontSize=14;" parent="KMOnb_bAFBB5x_InmHM_-13" vertex="1">
                    <mxGeometry x="360" width="66.67" height="60" as="geometry"/>
                </mxCell>
                <mxCell id="KMOnb_bAFBB5x_InmHM_-10" value="/UserGroups" style="sketch=0;pointerEvents=1;shadow=0;dashed=0;html=1;strokeColor=none;fillColor=#505050;labelPosition=center;verticalLabelPosition=bottom;verticalAlign=top;outlineConnect=0;align=center;shape=mxgraph.office.concepts.folder;fontSize=14;" parent="KMOnb_bAFBB5x_InmHM_-13" vertex="1">
                    <mxGeometry x="270" width="66.67" height="60" as="geometry"/>
                </mxCell>
                <mxCell id="KMOnb_bAFBB5x_InmHM_-34" value="" style="endArrow=classic;html=1;rounded=0;fontSize=14;entryX=0;entryY=0.5;entryDx=0;entryDy=0;" parent="oge7Bh9W16Lu8XVp-vkS-3" target="l1DRGvKWDy4JXCWzNHa7-45" edge="1">
                    <mxGeometry width="50" height="50" relative="1" as="geometry">
                        <mxPoint x="409" y="255" as="sourcePoint"/>
                        <mxPoint x="379" y="550" as="targetPoint"/>
                    </mxGeometry>
                </mxCell>
                <mxCell id="KMOnb_bAFBB5x_InmHM_-35" value="" style="group" parent="oge7Bh9W16Lu8XVp-vkS-3" vertex="1" connectable="0">
                    <mxGeometry width="412.85" height="510" as="geometry"/>
                </mxCell>
                <mxCell id="KMOnb_bAFBB5x_InmHM_-21" value="" style="rounded=1;whiteSpace=wrap;html=1;dashed=1;fontSize=14;verticalAlign=bottom;" parent="KMOnb_bAFBB5x_InmHM_-35" vertex="1">
                    <mxGeometry x="109" width="303.85" height="510" as="geometry"/>
                </mxCell>
                <mxCell id="KMOnb_bAFBB5x_InmHM_-23" value="SSW.Website" style="dashed=0;outlineConnect=0;html=1;align=center;labelPosition=center;verticalLabelPosition=bottom;verticalAlign=top;shape=mxgraph.weblogos.github;fontSize=14;" parent="KMOnb_bAFBB5x_InmHM_-35" vertex="1">
                    <mxGeometry x="209" y="9.999999999999996" width="100" height="100" as="geometry"/>
                </mxCell>
                <mxCell id="oge7Bh9W16Lu8XVp-vkS-2" value="Page templates" style="shape=image;html=1;verticalAlign=top;verticalLabelPosition=bottom;labelBackgroundColor=#ffffff;imageAspect=0;aspect=fixed;image=https://cdn0.iconfinder.com/data/icons/logos-brands-in-colors/128/react_color-128.png;dashed=1;fontSize=14;" parent="KMOnb_bAFBB5x_InmHM_-35" vertex="1">
                    <mxGeometry x="212.54000000000002" y="380" width="96.77" height="96.77" as="geometry"/>
                </mxCell>
                <mxCell id="zUVJO_H5fArIOazwRwj9-5" value="/lib folder" style="rounded=1;whiteSpace=wrap;html=1;fontSize=14;dashed=1;verticalAlign=bottom;" parent="KMOnb_bAFBB5x_InmHM_-35" vertex="1">
                    <mxGeometry x="119" y="160" width="280" height="200" as="geometry"/>
                </mxCell>
                <mxCell id="zUVJO_H5fArIOazwRwj9-6" value="SSW.TopBar" style="shape=image;html=1;verticalAlign=top;verticalLabelPosition=bottom;labelBackgroundColor=#ffffff;imageAspect=0;aspect=fixed;image=https://cdn0.iconfinder.com/data/icons/logos-brands-in-colors/128/react_color-128.png;dashed=1;fontSize=14;" parent="KMOnb_bAFBB5x_InmHM_-35" vertex="1">
                    <mxGeometry x="299" y="190" width="79.77" height="79.77" as="geometry"/>
                </mxCell>
                <mxCell id="zUVJO_H5fArIOazwRwj9-7" style="edgeStyle=orthogonalEdgeStyle;rounded=0;orthogonalLoop=1;jettySize=auto;html=1;exitX=0.5;exitY=1;exitDx=0;exitDy=0;fontSize=14;" parent="KMOnb_bAFBB5x_InmHM_-35" source="zUVJO_H5fArIOazwRwj9-6" target="zUVJO_H5fArIOazwRwj9-6" edge="1">
                    <mxGeometry relative="1" as="geometry"/>
                </mxCell>
                <mxCell id="l1DRGvKWDy4JXCWzNHa7-99" value="SSW.MegaMenu" style="shape=image;html=1;verticalAlign=top;verticalLabelPosition=bottom;labelBackgroundColor=#ffffff;imageAspect=0;aspect=fixed;image=https://cdn0.iconfinder.com/data/icons/logos-brands-in-colors/128/react_color-128.png;dashed=1;fontSize=14;" parent="KMOnb_bAFBB5x_InmHM_-35" vertex="1">
                    <mxGeometry x="139" y="193" width="76.77" height="76.77" as="geometry"/>
                </mxCell>
                <mxCell id="KMOnb_bAFBB5x_InmHM_-36" value="" style="group" parent="oge7Bh9W16Lu8XVp-vkS-3" vertex="1" connectable="0">
                    <mxGeometry x="847" width="360" height="506" as="geometry"/>
                </mxCell>
                <mxCell id="l1DRGvKWDy4JXCWzNHa7-39" value="Azure Services" style="rounded=1;whiteSpace=wrap;html=1;dashed=1;fontSize=14;verticalAlign=bottom;" parent="KMOnb_bAFBB5x_InmHM_-36" vertex="1">
                    <mxGeometry x="182" y="150" width="178" height="356" as="geometry"/>
                </mxCell>
                <mxCell id="10" style="edgeStyle=none;rounded=0;html=1;exitX=0.5;exitY=1;exitDx=0;exitDy=0;exitPerimeter=0;entryX=0.447;entryY=0.014;entryDx=0;entryDy=0;entryPerimeter=0;startArrow=none;startFill=0;" edge="1" parent="KMOnb_bAFBB5x_InmHM_-36" source="l1DRGvKWDy4JXCWzNHa7-41" target="l1DRGvKWDy4JXCWzNHa7-23">
                    <mxGeometry relative="1" as="geometry"/>
                </mxCell>
                <mxCell id="l1DRGvKWDy4JXCWzNHa7-41" value="Blob Storage" style="verticalLabelPosition=bottom;html=1;verticalAlign=top;align=center;strokeColor=none;fillColor=#00BEF2;shape=mxgraph.azure.storage_blob;dashed=1;fontSize=14;" parent="KMOnb_bAFBB5x_InmHM_-36" vertex="1">
                    <mxGeometry x="214.18" y="180" width="100" height="90" as="geometry"/>
                </mxCell>
                <mxCell id="l1DRGvKWDy4JXCWzNHa7-23" value="Azure Storage Static Site" style="sketch=0;aspect=fixed;pointerEvents=1;shadow=0;dashed=0;html=1;strokeColor=none;labelPosition=center;verticalLabelPosition=bottom;verticalAlign=top;align=center;shape=mxgraph.mscae.enterprise.website_generic;fillColor=#7D7D7D;fontSize=14;" parent="KMOnb_bAFBB5x_InmHM_-36" vertex="1">
                    <mxGeometry x="214.18" y="321" width="113.64" height="100" as="geometry"/>
                </mxCell>
                <mxCell id="lUbfIL0UIuU9DT59Bnzm-1" value="" style="group" parent="oge7Bh9W16Lu8XVp-vkS-3" vertex="1" connectable="0">
                    <mxGeometry x="555.94" y="330" width="295" height="140" as="geometry"/>
                </mxCell>
                <mxCell id="KMOnb_bAFBB5x_InmHM_-31" value="Example folder: /Consulting/ZenDesk" style="rounded=1;whiteSpace=wrap;html=1;dashed=1;fontSize=16;verticalAlign=bottom;" parent="lUbfIL0UIuU9DT59Bnzm-1" vertex="1">
                    <mxGeometry width="295" height="140" as="geometry"/>
                </mxCell>
                <mxCell id="KMOnb_bAFBB5x_InmHM_-32" value="&lt;font style=&quot;font-size: 14px&quot;&gt;page.md&lt;/font&gt;" style="shape=image;html=1;verticalAlign=top;verticalLabelPosition=bottom;labelBackgroundColor=#ffffff;imageAspect=0;aspect=fixed;image=https://cdn4.iconfinder.com/data/icons/logos-brands-5/24/markdown-128.png;dashed=1;fontSize=16;" parent="lUbfIL0UIuU9DT59Bnzm-1" vertex="1">
                    <mxGeometry x="40.25" width="89" height="89" as="geometry"/>
                </mxCell>
                <mxCell id="KMOnb_bAFBB5x_InmHM_-33" value="&lt;font style=&quot;font-size: 14px&quot;&gt;Image content&lt;/font&gt;" style="sketch=0;outlineConnect=0;fontColor=#232F3E;gradientColor=none;fillColor=#FF9900;strokeColor=none;dashed=0;verticalLabelPosition=bottom;verticalAlign=top;align=center;html=1;fontSize=12;fontStyle=0;aspect=fixed;pointerEvents=1;shape=mxgraph.aws4.container_registry_image;" parent="lUbfIL0UIuU9DT59Bnzm-1" vertex="1">
                    <mxGeometry x="180.25" y="14.5" width="74.5" height="74.5" as="geometry"/>
                </mxCell>
                <mxCell id="WIdfKLKi0uitsYpSGiFz-11" value="" style="edgeStyle=orthogonalEdgeStyle;rounded=0;orthogonalLoop=1;jettySize=auto;html=1;entryX=0.5;entryY=0;entryDx=0;entryDy=0;" parent="oge7Bh9W16Lu8XVp-vkS-3" source="WIdfKLKi0uitsYpSGiFz-27" target="WIdfKLKi0uitsYpSGiFz-33" edge="1">
                    <mxGeometry relative="1" as="geometry">
                        <mxPoint x="590" y="748" as="sourcePoint"/>
                        <mxPoint x="866" y="748" as="targetPoint"/>
                        <Array as="points">
                            <mxPoint x="705" y="750"/>
                            <mxPoint x="705" y="710"/>
                            <mxPoint x="920" y="710"/>
                        </Array>
                    </mxGeometry>
                </mxCell>
                <mxCell id="WIdfKLKi0uitsYpSGiFz-13" value="" style="edgeStyle=orthogonalEdgeStyle;rounded=0;orthogonalLoop=1;jettySize=auto;html=1;exitX=1;exitY=0.5;exitDx=0;exitDy=0;" parent="oge7Bh9W16Lu8XVp-vkS-3" source="WIdfKLKi0uitsYpSGiFz-31" edge="1">
                    <mxGeometry relative="1" as="geometry">
                        <mxPoint x="500" y="890" as="sourcePoint"/>
                        <mxPoint x="880" y="770" as="targetPoint"/>
                        <Array as="points">
                            <mxPoint x="820" y="890"/>
                            <mxPoint x="820" y="770"/>
                            <mxPoint x="880" y="770"/>
                        </Array>
                    </mxGeometry>
                </mxCell>
                <mxCell id="l1DRGvKWDy4JXCWzNHa7-89" value="" style="endArrow=classic;startArrow=none;html=1;rounded=0;fontSize=14;entryX=0.5;entryY=1;entryDx=0;entryDy=0;exitX=1;exitY=0.75;exitDx=0;exitDy=0;startFill=0;" parent="oge7Bh9W16Lu8XVp-vkS-3" source="WIdfKLKi0uitsYpSGiFz-32" target="l1DRGvKWDy4JXCWzNHa7-39" edge="1">
                    <mxGeometry width="50" height="50" relative="1" as="geometry">
                        <mxPoint x="1060" y="1100" as="sourcePoint"/>
                        <mxPoint x="1209" y="460" as="targetPoint"/>
                        <Array as="points">
                            <mxPoint x="1120" y="1100"/>
                            <mxPoint x="1120" y="850"/>
                        </Array>
                    </mxGeometry>
                </mxCell>
                <mxCell id="WIdfKLKi0uitsYpSGiFz-26" value="" style="edgeStyle=orthogonalEdgeStyle;rounded=0;orthogonalLoop=1;jettySize=auto;html=1;entryX=0;entryY=0.5;entryDx=0;entryDy=0;exitX=0.5;exitY=1;exitDx=0;exitDy=0;" parent="oge7Bh9W16Lu8XVp-vkS-3" source="KMOnb_bAFBB5x_InmHM_-21" target="WIdfKLKi0uitsYpSGiFz-20" edge="1">
                    <mxGeometry relative="1" as="geometry">
                        <mxPoint x="260.9249999999997" y="590" as="targetPoint"/>
                    </mxGeometry>
                </mxCell>
                <mxCell id="WIdfKLKi0uitsYpSGiFz-27" value="on-pr.yml" style="shape=image;verticalLabelPosition=bottom;labelBackgroundColor=default;verticalAlign=top;aspect=fixed;imageAspect=0;image=https://avatars.githubusercontent.com/u/44036562?s=280&amp;v=4;" parent="oge7Bh9W16Lu8XVp-vkS-3" vertex="1">
                    <mxGeometry x="450.00000000000006" y="710" width="80" height="80" as="geometry"/>
                </mxCell>
                <mxCell id="WIdfKLKi0uitsYpSGiFz-29" value="GitHub Actions" style="dashed=0;outlineConnect=0;html=1;align=center;labelPosition=center;verticalLabelPosition=bottom;verticalAlign=top;shape=mxgraph.weblogos.github;fontSize=14;" parent="oge7Bh9W16Lu8XVp-vkS-3" vertex="1">
                    <mxGeometry x="716.75" y="610" width="75.5" height="70" as="geometry"/>
                </mxCell>
                <mxCell id="4" style="edgeStyle=none;html=1;exitX=0;exitY=0.75;exitDx=0;exitDy=0;rounded=0;" edge="1" parent="oge7Bh9W16Lu8XVp-vkS-3" source="WIdfKLKi0uitsYpSGiFz-33" target="WIdfKLKi0uitsYpSGiFz-32">
                    <mxGeometry relative="1" as="geometry">
                        <Array as="points">
                            <mxPoint x="840" y="790"/>
                            <mxPoint x="840" y="900"/>
                            <mxPoint x="640" y="900"/>
                        </Array>
                    </mxGeometry>
                </mxCell>
                <mxCell id="5" value="Deploy to staging" style="edgeLabel;html=1;align=center;verticalAlign=middle;resizable=0;points=[];" vertex="1" connectable="0" parent="4">
                    <mxGeometry x="0.1361" y="-2" relative="1" as="geometry">
                        <mxPoint x="-72" y="52" as="offset"/>
                    </mxGeometry>
                </mxCell>
                <mxCell id="8" style="edgeStyle=none;rounded=0;html=1;exitX=1;exitY=1;exitDx=0;exitDy=0;startArrow=none;startFill=0;" edge="1" parent="oge7Bh9W16Lu8XVp-vkS-3" source="WIdfKLKi0uitsYpSGiFz-33" target="WIdfKLKi0uitsYpSGiFz-32">
                    <mxGeometry relative="1" as="geometry">
                        <Array as="points">
                            <mxPoint x="960" y="1080"/>
                        </Array>
                    </mxGeometry>
                </mxCell>
                <mxCell id="9" value="Deploy to Production" style="edgeLabel;html=1;align=center;verticalAlign=middle;resizable=0;points=[];" vertex="1" connectable="0" parent="8">
                    <mxGeometry x="-0.2541" y="1" relative="1" as="geometry">
                        <mxPoint x="-32" as="offset"/>
                    </mxGeometry>
                </mxCell>
                <mxCell id="WIdfKLKi0uitsYpSGiFz-33" value="build.yml" style="shape=image;verticalLabelPosition=bottom;labelBackgroundColor=default;verticalAlign=top;aspect=fixed;imageAspect=0;image=https://avatars.githubusercontent.com/u/44036562?s=280&amp;v=4;" parent="oge7Bh9W16Lu8XVp-vkS-3" vertex="1">
                    <mxGeometry x="880" y="730" width="80" height="80" as="geometry"/>
                </mxCell>
                <mxCell id="WIdfKLKi0uitsYpSGiFz-32" value="deploy.yml" style="shape=image;verticalLabelPosition=bottom;labelBackgroundColor=default;verticalAlign=top;aspect=fixed;imageAspect=0;image=https://avatars.githubusercontent.com/u/44036562?s=280&amp;v=4;" parent="oge7Bh9W16Lu8XVp-vkS-3" vertex="1">
                    <mxGeometry x="600" y="1040" width="80" height="80" as="geometry"/>
                </mxCell>
                <mxCell id="WIdfKLKi0uitsYpSGiFz-31" value="on-merge.yml" style="shape=image;verticalLabelPosition=bottom;labelBackgroundColor=default;verticalAlign=top;aspect=fixed;imageAspect=0;image=https://avatars.githubusercontent.com/u/44036562?s=280&amp;v=4;" parent="oge7Bh9W16Lu8XVp-vkS-3" vertex="1">
                    <mxGeometry x="450" y="850" width="80" height="80" as="geometry"/>
                </mxCell>
                <mxCell id="7" style="edgeStyle=none;rounded=0;html=1;exitX=0.413;exitY=-0.062;exitDx=0;exitDy=0;entryX=1;entryY=0.75;entryDx=0;entryDy=0;startArrow=none;startFill=0;exitPerimeter=0;" edge="1" parent="oge7Bh9W16Lu8XVp-vkS-3" source="WIdfKLKi0uitsYpSGiFz-30" target="WIdfKLKi0uitsYpSGiFz-33">
                    <mxGeometry relative="1" as="geometry">
                        <Array as="points">
                            <mxPoint x="1020" y="790"/>
                        </Array>
                    </mxGeometry>
                </mxCell>
                <mxCell id="WIdfKLKi0uitsYpSGiFz-30" value="on-release.yml" style="shape=image;verticalLabelPosition=bottom;labelBackgroundColor=default;verticalAlign=top;aspect=fixed;imageAspect=0;image=https://avatars.githubusercontent.com/u/44036562?s=280&amp;v=4;" parent="oge7Bh9W16Lu8XVp-vkS-3" vertex="1">
                    <mxGeometry x="987" y="930" width="80" height="80" as="geometry"/>
                </mxCell>
            </root>
        </mxGraphModel>
    </diagram>
</mxfile>